<svg version="1.1" xmlns="http://www.w3.org/2000/svg" xmlns:xlink="http://www.w3.org/1999/xlink" x="0px" y="0px"
viewBox="0 0 1900 279">
    <g>
        <path id="logo-icon-1" fill-rule="evenodd" clip-rule="evenodd" d="M121.875,14.25c4.333,0,8.667,0,13,0c28.131,1.74,49.641,11.51,67.25,24.25
        c5.872,4.248,11.7,8.799,16.5,14c19.15,20.751,35,48.152,35,87c0,38.852-15.848,66.248-35,87c-4.764,5.162-10.632,9.685-16.5,14
        c-17.331,12.747-39.028,22.408-67.25,24.25c-4.333,0-8.667,0-13,0c-36.07-2.676-62.446-17.196-82-36.75
        c-19.514-19.514-34.015-45.821-36.75-81.75c0-4.75,0-9.5,0-14.25c1.265-16.84,5.832-33.486,12.5-46.75
        c3.439-6.841,6.87-12.807,11-18.5C47.198,38.393,77.711,17.677,121.875,14.25z M124.375,24.5
        c-33.977,1.581-59.052,15.052-77.5,33.5c-18.532,18.532-31.816,43.303-33.5,77.75c21.333,0,42.667,0,64,0
        c0.167-23.917-0.333-48.5,0.25-72c4.921,0.163,10.495-0.328,15,0.25c0,12.917,0,25.833,0,38.75
        c24.083-16.011,49.121-33.695,73-50.25c1.556-1.079,3.661-1.774,4.75-3.5c0-5.583,0-11.167,0-16.75
        C157.208,27.175,142.194,23.671,124.375,24.5z M223.625,204.25c11.439-16.685,19.858-38.037,20-64.5
        c0.142-26.402-8.415-48.24-19.75-64.75c-11.585-16.874-26.806-30.259-45.75-39.25c0,5.75,0,11.5,0,17.25
        c-26.387,18.733-53.83,37.209-80.25,55.5c-1.778,1.231-3.756,2.384-5.25,4c0,17.75,0,35.5,0,53.25
        c18.705,12.963,37.44,25.893,56.25,38.75c2.784-4.799,5.343-9.824,8.5-14.25c5.841,10.392,12.261,21.314,18.25,31.75
        c0.89,1.55,2.245,3.506,2.5,4.75c1.121,5.469-0.842,10.869,0,16.5C197.292,234.04,212.019,221.179,223.625,204.25z M13.375,144.25
        c0.558,20.84,7.027,38.259,15.5,53c8.338,14.508,19.564,26.892,32.75,36.25c12.939,9.183,29.535,16.743,49.25,19.75
        c20.058,3.06,43.082,0.655,59.5-6.5c0-6.75,0-13.5,0-20.25c-11.682,0.182-22.591-0.409-34.25-0.25
        c2.864-5.136,5.996-10.004,8.75-15.25c-16.176-11.103-33.099-22.899-49-34c-0.818-0.571-3.217-2.153-3.25-1.5
        c-0.166,12.5,0.333,25.666-0.25,37.75c-4.921-0.163-10.495,0.328-15-0.25c0-23.167,0-46.333,0-69.5c-21.25,0-42.5,0-63.75,0
        C13.333,143.542,13.354,143.895,13.375,144.25z"/>
        <path id="logo-icon-2" fill-rule="evenodd" clip-rule="evenodd" d="M379.375,14.25c4.333,0,8.667,0,13,0C420.4,16,441.938,25.703,459.625,38.5
        c5.817,4.209,11.654,8.75,16.5,14c19.182,20.783,35,48.068,35,87c0,38.81-16.145,66.57-35,87c-4.867,5.273-10.708,9.74-16.5,14
        c-17.35,12.761-39.186,22.406-67.25,24.25c-4.333,0-8.667,0-13,0c0-0.083,0-0.167,0-0.25c-18.758-0.844-34.825-5.737-48.5-12.5
        c-13.525-6.688-25.456-15.208-35.25-25.75c-19.243-20.712-35-47.896-35-86.5c0-38.725,15.695-66.221,35-87
        c9.826-10.576,21.744-19.071,35.25-25.75C344.634,20.196,360.649,15.537,379.375,14.25z M420.625,29.75
        c-10.529-3.318-24.899-5.895-38.75-5.25c-19.483,0.906-35.024,5.671-49,12.75c-13.631,6.905-25.119,16.364-34.5,27.5
        c-18.316,21.744-32.591,53.223-26,94.25c12.417,0,24.833,0,37.25,0c0-6.5,0-13,0-19.5c13.584,7.333,26.401,15.432,40,22.75
        c0.167-32.75-0.333-66.167,0.25-98.5c4.921,0.163,10.495-0.328,15,0.25c0,8.833,0,17.667,0,26.5c41.666,0,83.334,0,125,0
        C476.722,62.629,453.334,40.059,420.625,29.75z M364.875,99c0,27.167,0,54.333,0,81.5c42.832,0,85.668,0,128.5,0
        c4.481-10.975,7.75-25.687,7.75-41c0-15.367-3.32-30.196-7.75-41.25c-42.749,0-85.5,0-128.25,0
        C364.833,98.292,364.854,98.645,364.875,99z M314.375,183.25c-1.537,0.874-2.891,2.359-4.75,2.5c0-6.333,0-12.667,0-19
        c-11.833,0.167-24.333-0.333-35.75,0.25c6.434,24,18.022,42.741,34.75,57.75c16.242,14.573,36.781,26.072,63.5,29.25
        c30.275,3.601,55.834-4.994,74.5-16.5c19.339-11.921,33.541-28.592,43.5-49.25c-41.749,0-83.501,0-125.25,0
        c-0.165,8.251,0.331,17.165-0.25,25c-4.921-0.163-10.495,0.328-15-0.25c-0.167-16.5,0.333-33.667-0.25-49.75
        C337.896,169.932,325.771,176.766,314.375,183.25z"/>
        <path id="logo-icon-3" fill-rule="evenodd" clip-rule="evenodd" d="M636.875,14.25c4.333,0,8.667,0,13,0c36.054,2.769,62.654,17.156,82.25,36.75
        c19.553,19.551,33.768,46.244,36.5,82.25c0,4.167,0,8.333,0,12.5c-2.583,36.241-17.155,62.656-36.75,82.25
        c-19.554,19.554-45.899,34.115-82,36.75c-4.333,0-8.667,0-13,0c0-0.083,0-0.167,0-0.25c-28.18-1.248-49.971-11.499-67.25-24
        c-5.877-4.251-11.642-8.735-16.5-14c-19.207-20.812-34.999-48.238-35-87c-0.001-38.942,15.902-66.308,35-87
        c4.851-5.255,10.692-9.798,16.5-14C587.33,25.69,608.844,16.006,636.875,14.25z M639.375,24.5
        c-33.978,1.581-59.052,15.052-77.5,33.5c-18.532,18.531-31.816,43.303-33.5,77.75c24.5,0,49,0,73.5,0
        c0.167-21.167-0.333-43,0.25-63.75c3.667,0,7.333,0,11,0c-0.167,45,0.333,90.667-0.25,135.25c-3.667,0-7.333,0-11,0
        c0-21.25,0-42.5,0-63.75c-24.5,0-49,0-73.5,0c0.357,21.029,6.852,38.489,15.25,53.25c8.363,14.699,19.482,26.98,32.75,36.5
        c12.916,9.268,29.545,16.915,49.25,20c20.158,3.156,43.271,0.613,59.75-6.5c0-11.917,0-23.833,0-35.75c-16.333,0-32.667,0-49,0
        c-0.166,6.167,0.333,13-0.25,18.75c-3.667,0-7.333,0-11,0c0-15.083,0-30.167,0-45.25c3.667,0.166,7.999-0.333,11.25,0.25
        c0,6.167,0,12.333,0,18.5c16.333,0,32.667,0,49,0c0-19.917,0-39.833,0-59.75c-6.5,0-13,0-19.5,0c0,4.417,0,8.833,0,13.25
        c-9.997-5.42-19.424-11.41-29.5-16.75c-0.166,7.333,0.333,15.333-0.25,22.25c-3.667,0-7.333,0-11,0
        c0.167-15-0.333-30.667,0.25-45.25c3.667,0,7.333,0,11,0c0,7.333,0,14.667,0,22c7.354-4.085,15.047-8.354,22.25-12.5
        c2.545-1.465,4.74-3.403,7.25-4c0,4.5,0,9,0,13.5c9,0.167,18.667-0.333,27.25,0.25c0,35.666,0,71.333,0,107
        c18.935-9.046,33.882-22.055,45.5-39c11.369-16.582,19.999-37.901,20-64.75c0.001-26.853-8.592-47.907-20-64.5
        c-11.656-16.955-26.335-30.307-45.5-39.25c-0.167,13.333,0.333,27.333-0.25,40.25c-18.833,0-37.667,0-56.5,0
        c0,6.25,0,12.5,0,18.75c-3.75,0-7.5,0-11.25,0c0.167-15-0.333-30.667,0.25-45.25c3.667,0,7.333,0,11,0c0,6.25,0,12.5,0,18.75
        c16.333,0,32.667,0,49,0c0-12,0-24,0-36C672.208,27.175,657.194,23.671,639.375,24.5z"/>
        <text x="820" y="185" font-size="140">
        runoffgroove.com
        </text>
    </g>
    <g id="runoffgroove.com">
    </g>
</svg>
